<mxfile host="app.diagrams.net" modified="2023-05-20T18:48:08.814Z" agent="Mozilla/5.0 (Macintosh; Intel Mac OS X 10_15_7) AppleWebKit/537.36 (KHTML, like Gecko) Chrome/113.0.0.0 Safari/537.36" etag="Ezzlcmu7ygNJGMgkxeK_" version="21.3.0" type="device">
  <diagram name="Page-1" id="2hGcQctgJSAskSrotJLc">
    <mxGraphModel dx="2021" dy="2389" grid="1" gridSize="10" guides="1" tooltips="1" connect="1" arrows="1" fold="1" page="1" pageScale="1" pageWidth="850" pageHeight="1100" math="0" shadow="0">
      <root>
        <mxCell id="0" />
        <mxCell id="1" parent="0" />
        <mxCell id="R5G-N09-sK8sF6CWP5im-87" value="" style="rounded=0;whiteSpace=wrap;html=1;" vertex="1" parent="1">
          <mxGeometry x="-190" y="60" width="1620" height="990" as="geometry" />
        </mxCell>
        <mxCell id="R5G-N09-sK8sF6CWP5im-2" value="" style="ellipse;whiteSpace=wrap;html=1;aspect=fixed;fillColor=#0D0D0D;" vertex="1" parent="1">
          <mxGeometry x="385" y="100" width="80" height="80" as="geometry" />
        </mxCell>
        <mxCell id="R5G-N09-sK8sF6CWP5im-6" value="" style="endArrow=classic;html=1;rounded=0;exitX=0.5;exitY=1;exitDx=0;exitDy=0;entryX=0.5;entryY=0;entryDx=0;entryDy=0;" edge="1" parent="1" source="R5G-N09-sK8sF6CWP5im-2" target="R5G-N09-sK8sF6CWP5im-16">
          <mxGeometry width="50" height="50" relative="1" as="geometry">
            <mxPoint x="495" y="380" as="sourcePoint" />
            <mxPoint x="365" y="200" as="targetPoint" />
          </mxGeometry>
        </mxCell>
        <mxCell id="R5G-N09-sK8sF6CWP5im-7" value="" style="endArrow=classic;html=1;rounded=0;exitX=0.5;exitY=1;exitDx=0;exitDy=0;entryX=0.5;entryY=0;entryDx=0;entryDy=0;" edge="1" parent="1" source="R5G-N09-sK8sF6CWP5im-2" target="R5G-N09-sK8sF6CWP5im-27">
          <mxGeometry width="50" height="50" relative="1" as="geometry">
            <mxPoint x="495" y="380" as="sourcePoint" />
            <mxPoint x="555" y="190" as="targetPoint" />
          </mxGeometry>
        </mxCell>
        <mxCell id="R5G-N09-sK8sF6CWP5im-15" value="" style="html=1;shadow=0;dashed=0;align=center;verticalAlign=middle;shape=mxgraph.arrows2.arrow;dy=0.6;dx=40;notch=0;fillColor=#dae8fc;strokeColor=#6c8ebf;" vertex="1" parent="1">
          <mxGeometry x="110" y="110" width="100" height="70" as="geometry" />
        </mxCell>
        <mxCell id="R5G-N09-sK8sF6CWP5im-16" value="" style="ellipse;whiteSpace=wrap;html=1;aspect=fixed;fillColor=#0D0D0D;" vertex="1" parent="1">
          <mxGeometry x="265" y="220" width="80" height="80" as="geometry" />
        </mxCell>
        <mxCell id="R5G-N09-sK8sF6CWP5im-17" value="" style="ellipse;whiteSpace=wrap;html=1;aspect=fixed;fillColor=#B9E0A5;" vertex="1" parent="1">
          <mxGeometry x="195" y="320" width="80" height="80" as="geometry" />
        </mxCell>
        <mxCell id="R5G-N09-sK8sF6CWP5im-18" value="" style="ellipse;whiteSpace=wrap;html=1;aspect=fixed;fillColor=#B9E0A5;" vertex="1" parent="1">
          <mxGeometry x="325" y="320" width="80" height="80" as="geometry" />
        </mxCell>
        <mxCell id="R5G-N09-sK8sF6CWP5im-19" value="" style="endArrow=classic;html=1;rounded=0;exitX=0.5;exitY=1;exitDx=0;exitDy=0;entryX=0.5;entryY=0;entryDx=0;entryDy=0;" edge="1" parent="1" source="R5G-N09-sK8sF6CWP5im-16" target="R5G-N09-sK8sF6CWP5im-17">
          <mxGeometry width="50" height="50" relative="1" as="geometry">
            <mxPoint x="435" y="510" as="sourcePoint" />
            <mxPoint x="485" y="460" as="targetPoint" />
          </mxGeometry>
        </mxCell>
        <mxCell id="R5G-N09-sK8sF6CWP5im-20" value="" style="endArrow=classic;html=1;rounded=0;exitX=0.5;exitY=1;exitDx=0;exitDy=0;entryX=0.5;entryY=0;entryDx=0;entryDy=0;" edge="1" parent="1" source="R5G-N09-sK8sF6CWP5im-16" target="R5G-N09-sK8sF6CWP5im-18">
          <mxGeometry width="50" height="50" relative="1" as="geometry">
            <mxPoint x="435" y="510" as="sourcePoint" />
            <mxPoint x="485" y="460" as="targetPoint" />
          </mxGeometry>
        </mxCell>
        <mxCell id="R5G-N09-sK8sF6CWP5im-27" value="" style="ellipse;whiteSpace=wrap;html=1;aspect=fixed;fillColor=#0D0D0D;" vertex="1" parent="1">
          <mxGeometry x="525" y="220" width="80" height="80" as="geometry" />
        </mxCell>
        <mxCell id="R5G-N09-sK8sF6CWP5im-28" value="" style="ellipse;whiteSpace=wrap;html=1;aspect=fixed;fillColor=#B9E0A5;" vertex="1" parent="1">
          <mxGeometry x="455" y="320" width="80" height="80" as="geometry" />
        </mxCell>
        <mxCell id="R5G-N09-sK8sF6CWP5im-29" value="" style="ellipse;whiteSpace=wrap;html=1;aspect=fixed;fillColor=#B9E0A5;" vertex="1" parent="1">
          <mxGeometry x="585" y="320" width="80" height="80" as="geometry" />
        </mxCell>
        <mxCell id="R5G-N09-sK8sF6CWP5im-30" value="" style="endArrow=classic;html=1;rounded=0;exitX=0.5;exitY=1;exitDx=0;exitDy=0;entryX=0.5;entryY=0;entryDx=0;entryDy=0;" edge="1" parent="1" source="R5G-N09-sK8sF6CWP5im-27" target="R5G-N09-sK8sF6CWP5im-28">
          <mxGeometry width="50" height="50" relative="1" as="geometry">
            <mxPoint x="695" y="510" as="sourcePoint" />
            <mxPoint x="745" y="460" as="targetPoint" />
          </mxGeometry>
        </mxCell>
        <mxCell id="R5G-N09-sK8sF6CWP5im-31" value="" style="endArrow=classic;html=1;rounded=0;exitX=0.5;exitY=1;exitDx=0;exitDy=0;entryX=0.5;entryY=0;entryDx=0;entryDy=0;" edge="1" parent="1" source="R5G-N09-sK8sF6CWP5im-27" target="R5G-N09-sK8sF6CWP5im-29">
          <mxGeometry width="50" height="50" relative="1" as="geometry">
            <mxPoint x="695" y="510" as="sourcePoint" />
            <mxPoint x="745" y="460" as="targetPoint" />
          </mxGeometry>
        </mxCell>
        <mxCell id="R5G-N09-sK8sF6CWP5im-32" value="" style="ellipse;whiteSpace=wrap;html=1;aspect=fixed;fillColor=#0D0D0D;" vertex="1" parent="1">
          <mxGeometry x="-20" y="180" width="80" height="80" as="geometry" />
        </mxCell>
        <mxCell id="R5G-N09-sK8sF6CWP5im-33" value="" style="ellipse;whiteSpace=wrap;html=1;aspect=fixed;fillColor=#B9E0A5;" vertex="1" parent="1">
          <mxGeometry x="-90" y="280" width="80" height="80" as="geometry" />
        </mxCell>
        <mxCell id="R5G-N09-sK8sF6CWP5im-34" value="" style="ellipse;whiteSpace=wrap;html=1;aspect=fixed;fillColor=#B9E0A5;" vertex="1" parent="1">
          <mxGeometry x="40" y="280" width="80" height="80" as="geometry" />
        </mxCell>
        <mxCell id="R5G-N09-sK8sF6CWP5im-35" value="" style="endArrow=classic;html=1;rounded=0;exitX=0.5;exitY=1;exitDx=0;exitDy=0;entryX=0.5;entryY=0;entryDx=0;entryDy=0;" edge="1" parent="1" source="R5G-N09-sK8sF6CWP5im-32" target="R5G-N09-sK8sF6CWP5im-33">
          <mxGeometry width="50" height="50" relative="1" as="geometry">
            <mxPoint x="150" y="470" as="sourcePoint" />
            <mxPoint x="200" y="420" as="targetPoint" />
          </mxGeometry>
        </mxCell>
        <mxCell id="R5G-N09-sK8sF6CWP5im-36" value="" style="endArrow=classic;html=1;rounded=0;exitX=0.5;exitY=1;exitDx=0;exitDy=0;entryX=0.5;entryY=0;entryDx=0;entryDy=0;" edge="1" parent="1" source="R5G-N09-sK8sF6CWP5im-32" target="R5G-N09-sK8sF6CWP5im-34">
          <mxGeometry width="50" height="50" relative="1" as="geometry">
            <mxPoint x="150" y="470" as="sourcePoint" />
            <mxPoint x="200" y="420" as="targetPoint" />
          </mxGeometry>
        </mxCell>
        <mxCell id="R5G-N09-sK8sF6CWP5im-38" value="" style="html=1;shadow=0;dashed=0;align=center;verticalAlign=middle;shape=mxgraph.arrows2.arrow;dy=0.6;dx=40;notch=0;fillColor=#dae8fc;strokeColor=#6c8ebf;" vertex="1" parent="1">
          <mxGeometry x="645" y="110" width="100" height="70" as="geometry" />
        </mxCell>
        <mxCell id="R5G-N09-sK8sF6CWP5im-39" value="&lt;font style=&quot;font-size: 16px;&quot;&gt;Depth-Wise Tree Growth (XGB)&lt;/font&gt;" style="text;html=1;align=center;verticalAlign=middle;resizable=0;points=[];autosize=1;strokeColor=none;fillColor=none;" vertex="1" parent="1">
          <mxGeometry x="-75" y="380" width="250" height="30" as="geometry" />
        </mxCell>
        <mxCell id="R5G-N09-sK8sF6CWP5im-40" value="" style="ellipse;whiteSpace=wrap;html=1;aspect=fixed;fillColor=#0D0D0D;" vertex="1" parent="1">
          <mxGeometry x="-75" y="650" width="80" height="80" as="geometry" />
        </mxCell>
        <mxCell id="R5G-N09-sK8sF6CWP5im-41" value="" style="ellipse;whiteSpace=wrap;html=1;aspect=fixed;fillColor=#B9E0A5;" vertex="1" parent="1">
          <mxGeometry x="-145" y="750" width="80" height="80" as="geometry" />
        </mxCell>
        <mxCell id="R5G-N09-sK8sF6CWP5im-42" value="" style="ellipse;whiteSpace=wrap;html=1;aspect=fixed;fillColor=#0D0D0D;" vertex="1" parent="1">
          <mxGeometry x="-15" y="750" width="80" height="80" as="geometry" />
        </mxCell>
        <mxCell id="R5G-N09-sK8sF6CWP5im-43" value="" style="endArrow=classic;html=1;rounded=0;exitX=0.5;exitY=1;exitDx=0;exitDy=0;entryX=0.5;entryY=0;entryDx=0;entryDy=0;" edge="1" parent="1" source="R5G-N09-sK8sF6CWP5im-40" target="R5G-N09-sK8sF6CWP5im-41">
          <mxGeometry width="50" height="50" relative="1" as="geometry">
            <mxPoint x="95" y="940" as="sourcePoint" />
            <mxPoint x="145" y="890" as="targetPoint" />
          </mxGeometry>
        </mxCell>
        <mxCell id="R5G-N09-sK8sF6CWP5im-44" value="" style="endArrow=classic;html=1;rounded=0;exitX=0.5;exitY=1;exitDx=0;exitDy=0;entryX=0.5;entryY=0;entryDx=0;entryDy=0;" edge="1" parent="1" source="R5G-N09-sK8sF6CWP5im-40" target="R5G-N09-sK8sF6CWP5im-42">
          <mxGeometry width="50" height="50" relative="1" as="geometry">
            <mxPoint x="95" y="940" as="sourcePoint" />
            <mxPoint x="145" y="890" as="targetPoint" />
          </mxGeometry>
        </mxCell>
        <mxCell id="R5G-N09-sK8sF6CWP5im-50" value="" style="html=1;shadow=0;dashed=0;align=center;verticalAlign=middle;shape=mxgraph.arrows2.arrow;dy=0.6;dx=40;notch=0;fillColor=#dae8fc;strokeColor=#6c8ebf;" vertex="1" parent="1">
          <mxGeometry x="130" y="645" width="100" height="70" as="geometry" />
        </mxCell>
        <mxCell id="R5G-N09-sK8sF6CWP5im-61" value="" style="ellipse;whiteSpace=wrap;html=1;aspect=fixed;fillColor=#0D0D0D;" vertex="1" parent="1">
          <mxGeometry x="430" y="530" width="80" height="80" as="geometry" />
        </mxCell>
        <mxCell id="R5G-N09-sK8sF6CWP5im-62" value="" style="endArrow=classic;html=1;rounded=0;exitX=0.5;exitY=1;exitDx=0;exitDy=0;entryX=0.5;entryY=0;entryDx=0;entryDy=0;" edge="1" parent="1" source="R5G-N09-sK8sF6CWP5im-61" target="R5G-N09-sK8sF6CWP5im-64">
          <mxGeometry width="50" height="50" relative="1" as="geometry">
            <mxPoint x="540" y="810" as="sourcePoint" />
            <mxPoint x="410" y="630" as="targetPoint" />
          </mxGeometry>
        </mxCell>
        <mxCell id="R5G-N09-sK8sF6CWP5im-63" value="" style="endArrow=classic;html=1;rounded=0;exitX=0.5;exitY=1;exitDx=0;exitDy=0;entryX=0.5;entryY=0;entryDx=0;entryDy=0;" edge="1" parent="1" source="R5G-N09-sK8sF6CWP5im-61" target="R5G-N09-sK8sF6CWP5im-67">
          <mxGeometry width="50" height="50" relative="1" as="geometry">
            <mxPoint x="540" y="810" as="sourcePoint" />
            <mxPoint x="600" y="620" as="targetPoint" />
          </mxGeometry>
        </mxCell>
        <mxCell id="R5G-N09-sK8sF6CWP5im-64" value="" style="ellipse;whiteSpace=wrap;html=1;aspect=fixed;fillColor=#0D0D0D;" vertex="1" parent="1">
          <mxGeometry x="360" y="650" width="80" height="80" as="geometry" />
        </mxCell>
        <mxCell id="R5G-N09-sK8sF6CWP5im-65" value="" style="ellipse;whiteSpace=wrap;html=1;aspect=fixed;fillColor=#0D0D0D;" vertex="1" parent="1">
          <mxGeometry x="310" y="770" width="80" height="80" as="geometry" />
        </mxCell>
        <mxCell id="R5G-N09-sK8sF6CWP5im-66" value="" style="ellipse;whiteSpace=wrap;html=1;aspect=fixed;fillColor=#B9E0A5;" vertex="1" parent="1">
          <mxGeometry x="410" y="770" width="80" height="80" as="geometry" />
        </mxCell>
        <mxCell id="R5G-N09-sK8sF6CWP5im-67" value="" style="ellipse;whiteSpace=wrap;html=1;aspect=fixed;fillColor=#0D0D0D;" vertex="1" parent="1">
          <mxGeometry x="490" y="650" width="80" height="80" as="geometry" />
        </mxCell>
        <mxCell id="R5G-N09-sK8sF6CWP5im-68" value="" style="endArrow=classic;html=1;rounded=0;exitX=0.5;exitY=1;exitDx=0;exitDy=0;entryX=0.5;entryY=0;entryDx=0;entryDy=0;" edge="1" parent="1" source="R5G-N09-sK8sF6CWP5im-64" target="R5G-N09-sK8sF6CWP5im-65">
          <mxGeometry width="50" height="50" relative="1" as="geometry">
            <mxPoint x="280" y="530" as="sourcePoint" />
            <mxPoint x="330" y="480" as="targetPoint" />
          </mxGeometry>
        </mxCell>
        <mxCell id="R5G-N09-sK8sF6CWP5im-70" value="" style="endArrow=classic;html=1;rounded=0;entryX=0.5;entryY=0;entryDx=0;entryDy=0;exitX=0.5;exitY=1;exitDx=0;exitDy=0;" edge="1" parent="1" source="R5G-N09-sK8sF6CWP5im-64" target="R5G-N09-sK8sF6CWP5im-66">
          <mxGeometry width="50" height="50" relative="1" as="geometry">
            <mxPoint x="350" y="730" as="sourcePoint" />
            <mxPoint x="290" y="760" as="targetPoint" />
          </mxGeometry>
        </mxCell>
        <mxCell id="R5G-N09-sK8sF6CWP5im-71" value="" style="html=1;shadow=0;dashed=0;align=center;verticalAlign=middle;shape=mxgraph.arrows2.arrow;dy=0.6;dx=40;notch=0;fillColor=#dae8fc;strokeColor=#6c8ebf;" vertex="1" parent="1">
          <mxGeometry x="645" y="640" width="100" height="70" as="geometry" />
        </mxCell>
        <mxCell id="R5G-N09-sK8sF6CWP5im-72" value="" style="ellipse;whiteSpace=wrap;html=1;aspect=fixed;fillColor=#0D0D0D;" vertex="1" parent="1">
          <mxGeometry x="890" y="520" width="80" height="80" as="geometry" />
        </mxCell>
        <mxCell id="R5G-N09-sK8sF6CWP5im-73" value="" style="endArrow=classic;html=1;rounded=0;exitX=0.5;exitY=1;exitDx=0;exitDy=0;entryX=0.5;entryY=0;entryDx=0;entryDy=0;" edge="1" parent="1" source="R5G-N09-sK8sF6CWP5im-72" target="R5G-N09-sK8sF6CWP5im-75">
          <mxGeometry width="50" height="50" relative="1" as="geometry">
            <mxPoint x="1000" y="800" as="sourcePoint" />
            <mxPoint x="870" y="620" as="targetPoint" />
          </mxGeometry>
        </mxCell>
        <mxCell id="R5G-N09-sK8sF6CWP5im-74" value="" style="endArrow=classic;html=1;rounded=0;exitX=0.5;exitY=1;exitDx=0;exitDy=0;entryX=0.5;entryY=0;entryDx=0;entryDy=0;" edge="1" parent="1" source="R5G-N09-sK8sF6CWP5im-72" target="R5G-N09-sK8sF6CWP5im-78">
          <mxGeometry width="50" height="50" relative="1" as="geometry">
            <mxPoint x="1000" y="800" as="sourcePoint" />
            <mxPoint x="1060" y="610" as="targetPoint" />
          </mxGeometry>
        </mxCell>
        <mxCell id="R5G-N09-sK8sF6CWP5im-75" value="" style="ellipse;whiteSpace=wrap;html=1;aspect=fixed;fillColor=#0D0D0D;" vertex="1" parent="1">
          <mxGeometry x="820" y="640" width="80" height="80" as="geometry" />
        </mxCell>
        <mxCell id="R5G-N09-sK8sF6CWP5im-76" value="" style="ellipse;whiteSpace=wrap;html=1;aspect=fixed;fillColor=#0D0D0D;" vertex="1" parent="1">
          <mxGeometry x="770" y="760" width="80" height="80" as="geometry" />
        </mxCell>
        <mxCell id="R5G-N09-sK8sF6CWP5im-77" value="" style="ellipse;whiteSpace=wrap;html=1;aspect=fixed;fillColor=#0D0D0D;strokeColor=#0D0D0D;" vertex="1" parent="1">
          <mxGeometry x="870" y="760" width="80" height="80" as="geometry" />
        </mxCell>
        <mxCell id="R5G-N09-sK8sF6CWP5im-78" value="" style="ellipse;whiteSpace=wrap;html=1;aspect=fixed;fillColor=#B9E0A5;strokeColor=#82b366;" vertex="1" parent="1">
          <mxGeometry x="950" y="640" width="80" height="80" as="geometry" />
        </mxCell>
        <mxCell id="R5G-N09-sK8sF6CWP5im-79" value="" style="endArrow=classic;html=1;rounded=0;exitX=0.5;exitY=1;exitDx=0;exitDy=0;entryX=0.5;entryY=0;entryDx=0;entryDy=0;" edge="1" parent="1" source="R5G-N09-sK8sF6CWP5im-75" target="R5G-N09-sK8sF6CWP5im-76">
          <mxGeometry width="50" height="50" relative="1" as="geometry">
            <mxPoint x="740" y="520" as="sourcePoint" />
            <mxPoint x="790" y="470" as="targetPoint" />
          </mxGeometry>
        </mxCell>
        <mxCell id="R5G-N09-sK8sF6CWP5im-80" value="" style="endArrow=classic;html=1;rounded=0;entryX=0.5;entryY=0;entryDx=0;entryDy=0;exitX=0.5;exitY=1;exitDx=0;exitDy=0;" edge="1" parent="1" source="R5G-N09-sK8sF6CWP5im-75" target="R5G-N09-sK8sF6CWP5im-77">
          <mxGeometry width="50" height="50" relative="1" as="geometry">
            <mxPoint x="810" y="720" as="sourcePoint" />
            <mxPoint x="750" y="750" as="targetPoint" />
          </mxGeometry>
        </mxCell>
        <mxCell id="R5G-N09-sK8sF6CWP5im-81" value="" style="ellipse;whiteSpace=wrap;html=1;aspect=fixed;fillColor=#0D0D0D;" vertex="1" parent="1">
          <mxGeometry x="820" y="880" width="80" height="80" as="geometry" />
        </mxCell>
        <mxCell id="R5G-N09-sK8sF6CWP5im-82" value="" style="ellipse;whiteSpace=wrap;html=1;aspect=fixed;fillColor=#0D0D0D;strokeColor=#0D0D0D;" vertex="1" parent="1">
          <mxGeometry x="920" y="880" width="80" height="80" as="geometry" />
        </mxCell>
        <mxCell id="R5G-N09-sK8sF6CWP5im-83" value="" style="endArrow=classic;html=1;rounded=0;entryX=0.5;entryY=0;entryDx=0;entryDy=0;exitX=0.5;exitY=1;exitDx=0;exitDy=0;" edge="1" parent="1" target="R5G-N09-sK8sF6CWP5im-81" source="R5G-N09-sK8sF6CWP5im-77">
          <mxGeometry width="50" height="50" relative="1" as="geometry">
            <mxPoint x="910" y="860" as="sourcePoint" />
            <mxPoint x="840" y="590" as="targetPoint" />
          </mxGeometry>
        </mxCell>
        <mxCell id="R5G-N09-sK8sF6CWP5im-84" value="" style="endArrow=classic;html=1;rounded=0;entryX=0.5;entryY=0;entryDx=0;entryDy=0;exitX=0.5;exitY=1;exitDx=0;exitDy=0;" edge="1" parent="1" target="R5G-N09-sK8sF6CWP5im-82" source="R5G-N09-sK8sF6CWP5im-77">
          <mxGeometry width="50" height="50" relative="1" as="geometry">
            <mxPoint x="910" y="860" as="sourcePoint" />
            <mxPoint x="800" y="870" as="targetPoint" />
          </mxGeometry>
        </mxCell>
        <mxCell id="R5G-N09-sK8sF6CWP5im-86" value="&lt;div style=&quot;text-align: center;&quot;&gt;&lt;span style=&quot;background-color: initial;&quot;&gt;&lt;font style=&quot;font-size: 16px;&quot;&gt;Leaf-Wise Tree Growth (LGBM)&lt;/font&gt;&lt;/span&gt;&lt;/div&gt;" style="text;whiteSpace=wrap;html=1;" vertex="1" parent="1">
          <mxGeometry x="-75" y="880" width="200" height="40" as="geometry" />
        </mxCell>
        <mxCell id="R5G-N09-sK8sF6CWP5im-88" value="" style="html=1;shadow=0;dashed=0;align=center;verticalAlign=middle;shape=mxgraph.arrows2.arrow;dy=0.6;dx=40;notch=0;fillColor=#dae8fc;strokeColor=#6c8ebf;" vertex="1" parent="1">
          <mxGeometry x="1110" y="640" width="100" height="70" as="geometry" />
        </mxCell>
      </root>
    </mxGraphModel>
  </diagram>
</mxfile>
